<svg width="1392" height="1028" viewBox="0 0 1392 1028" fill="none" xmlns="http://www.w3.org/2000/svg">
<path d="M212.512 105.006C211.609 98.355 210.586 91.7276 209.896 85.0528C209.635 82.4636 208.779 79.1617 212.156 77.8078C215.366 76.525 217.293 79.0667 219.077 81.0858C265.858 134.01 292.233 192.896 274.372 265.322C267.023 295.181 255.393 323.781 249.115 353.925C245.714 370.244 243.098 386.611 246.546 403.191C251.564 427.301 265.691 436.162 289.736 430.841C326.433 422.717 359.302 405.59 391.718 387.466C426.822 367.845 460.903 346.181 499.907 334.518C543.62 321.453 586.858 319.482 629.049 340.195C637.944 344.566 646.149 350.029 653.522 356.728C655.282 358.319 657.28 360.03 656.328 362.69C655.306 365.517 652.975 365.161 650.43 364.638C578.391 349.388 517.055 373.498 459.833 415.092C428.582 437.801 396.403 459.512 358.636 470.771C313.162 484.335 270.353 477.494 229.922 453.858C201.525 437.278 191.108 411.647 194.057 379.746C197.41 343.449 208.327 308.65 215.676 273.161C220.741 248.718 225.236 224.228 220.504 199.31C213.987 164.866 191.227 141.635 164.899 121.064C163.353 119.852 161.712 118.736 160.071 117.62C157.407 115.814 154.434 113.914 155.481 110.185C156.646 106.028 160.546 106.978 163.472 107.168C177.266 108.047 191.06 109.187 204.854 110.232C209.088 110.897 214.748 113.653 212.512 105.006Z" fill="#0F2A54"/>
<path d="M214.828 430.802C216.514 430.468 217.464 429.943 217.987 430.229C253.328 449.477 288.312 441.439 323.106 428.631C361.06 414.654 395.45 393.545 430.411 373.653C462.783 355.216 496.152 339.068 533.464 333.773C563.627 329.48 593.315 331.197 621.341 344.769C625.83 346.939 630.865 348.514 634.736 354.548C614.809 352.616 595.975 352.306 577.236 354.763C542.157 359.366 510.569 373.057 480.952 392.043C451.383 411.005 423.571 432.614 392.458 449.263C343.579 475.428 294.202 478.481 243.899 453.89C230.527 447.307 224.4 442.322 214.828 430.802Z" fill="#6EC7FE"/>
<path d="M252.442 431.941C223.289 433.227 199.054 407.744 201.596 380.499C205.255 341.346 216.351 303.717 225 265.659C238.638 205.5 224.287 156.32 174.7 118.548C173.56 117.691 172.585 116.643 169.164 113.523C184.584 115 197.129 115.262 209.271 117.643C220.271 119.787 223.241 116.857 220.271 106.378C219.131 102.377 218.632 98.1859 217.682 93.3512C223.146 93.2083 225.213 97.3761 227.494 100.496C251.23 132.814 268.646 167.8 272.781 208.429C275.323 233.365 269.597 257.085 262.92 280.71C255.079 308.432 244.601 335.392 240.253 364.09C236.642 388.001 235.81 411.317 252.442 431.941Z" fill="#FE9B9B"/>
<path d="M1277.93 774.488C1284.58 774.488 1290.44 769.719 1290.44 763.295C1290.44 756.87 1284.58 752.102 1277.93 752.102C1271.28 752.102 1265.42 756.87 1265.42 763.295C1265.42 769.719 1271.28 774.488 1277.93 774.488Z" fill="#6EC8FF" stroke="black" stroke-width="4"/>
<path d="M214.029 753.384L216.928 757.751L218.497 752.75L222.873 738.805L224.06 735.025L220.137 735.581L207.678 737.349L203.756 737.906L205.947 741.207L214.029 753.384Z" fill="#03A800" stroke="black" stroke-width="5"/>
<rect x="329.469" y="133.934" width="200.856" height="75.5914" rx="37.7957" fill="#F08E8B" stroke="#172C61" stroke-width="6"/>
<rect x="818.008" y="133.934" width="200.856" height="75.5914" rx="37.7957" fill="#F08E8B" stroke="#172C61" stroke-width="6"/>
<rect x="379.664" y="118.5" width="589.568" height="78.7669" rx="39.3835" fill="#E5606A" stroke="#0F255D" stroke-width="5"/>
<path d="M518.294 162.35H537.914V172.67H533.984V165.53H518.294V162.35ZM533.924 144.89H537.914V161.21H533.924V144.89ZM530.144 151.73H537.224V154.88H530.144V151.73ZM514.784 157.01H516.164C517.284 157.01 518.304 156.99 519.224 156.95C520.164 156.91 521.154 156.78 522.194 156.56L522.494 159.77C521.374 159.99 520.334 160.12 519.374 160.16C518.414 160.2 517.344 160.22 516.164 160.22H514.784V157.01ZM514.784 146.87H522.044V150.05H518.714V158.27H514.784V146.87ZM523.364 157.01H524.864C526.044 157.01 527.024 157 527.804 156.98C528.604 156.96 529.304 156.92 529.904 156.86C530.524 156.78 531.134 156.67 531.734 156.53L532.034 159.71C531.414 159.85 530.784 159.96 530.144 160.04C529.504 160.12 528.774 160.17 527.954 160.19C527.134 160.21 526.104 160.22 524.864 160.22H523.364V157.01ZM523.364 146.87H531.104V150.05H527.294V158.24H523.364V146.87ZM559.572 144.86H563.592V172.64H559.572V144.86ZM545.412 147.71H549.162C549.162 149.59 549.082 151.38 548.922 153.08C548.762 154.78 548.472 156.41 548.052 157.97C547.652 159.51 547.062 161 546.282 162.44C545.522 163.86 544.542 165.24 543.342 166.58L540.312 164.27C541.332 163.13 542.172 161.98 542.832 160.82C543.492 159.64 544.012 158.41 544.392 157.13C544.772 155.85 545.032 154.48 545.172 153.02C545.332 151.54 545.412 149.93 545.412 148.19V147.71ZM541.602 147.71H546.942V150.92H541.602V147.71ZM553.122 147.71H556.872C556.872 149.69 556.802 151.61 556.662 153.47C556.522 155.31 556.262 157.09 555.882 158.81C555.502 160.51 554.952 162.16 554.232 163.76C553.512 165.36 552.582 166.89 551.442 168.35L548.232 166.19C549.232 164.89 550.042 163.57 550.662 162.23C551.302 160.89 551.802 159.5 552.162 158.06C552.522 156.6 552.772 155.06 552.912 153.44C553.052 151.8 553.122 150.03 553.122 148.13V147.71ZM550.122 147.71H554.712V150.92H550.122V147.71ZM575.529 146.72C576.969 146.72 578.269 147.01 579.429 147.59C580.589 148.17 581.499 148.98 582.159 150.02C582.819 151.04 583.149 152.22 583.149 153.56C583.149 154.88 582.819 156.06 582.159 157.1C581.499 158.14 580.589 158.95 579.429 159.53C578.269 160.11 576.969 160.4 575.529 160.4C574.069 160.4 572.759 160.11 571.599 159.53C570.439 158.95 569.519 158.14 568.839 157.1C568.179 156.06 567.849 154.88 567.849 153.56C567.849 152.22 568.179 151.04 568.839 150.02C569.519 148.98 570.439 148.17 571.599 147.59C572.759 147.01 574.069 146.72 575.529 146.72ZM575.529 150.14C574.809 150.14 574.159 150.28 573.579 150.56C573.019 150.82 572.569 151.21 572.229 151.73C571.909 152.23 571.749 152.84 571.749 153.56C571.749 154.28 571.909 154.9 572.229 155.42C572.569 155.94 573.019 156.34 573.579 156.62C574.159 156.88 574.809 157.01 575.529 157.01C576.229 157.01 576.859 156.88 577.419 156.62C577.979 156.34 578.419 155.94 578.739 155.42C579.079 154.9 579.249 154.28 579.249 153.56C579.249 152.84 579.079 152.23 578.739 151.73C578.419 151.21 577.979 150.82 577.419 150.56C576.859 150.28 576.229 150.14 575.529 150.14ZM585.759 144.83H589.749V172.7H585.759V144.83ZM567.159 167.09L566.709 163.85C568.329 163.85 570.119 163.84 572.079 163.82C574.059 163.78 576.089 163.7 578.169 163.58C580.269 163.44 582.299 163.23 584.259 162.95L584.529 165.83C582.529 166.23 580.499 166.52 578.439 166.7C576.379 166.86 574.389 166.97 572.469 167.03C570.549 167.07 568.779 167.09 567.159 167.09ZM616.77 144.89H620.76V172.67H616.77V144.89ZM619.86 155.72H624.75V159.02H619.86V155.72ZM598.83 148.97H615.03V152.15H598.83V148.97ZM606.99 153.74C608.33 153.74 609.53 154.03 610.59 154.61C611.65 155.17 612.48 155.94 613.08 156.92C613.7 157.9 614.01 159.04 614.01 160.34C614.01 161.64 613.7 162.79 613.08 163.79C612.48 164.77 611.65 165.55 610.59 166.13C609.55 166.69 608.35 166.97 606.99 166.97C605.65 166.97 604.44 166.69 603.36 166.13C602.3 165.55 601.46 164.77 600.84 163.79C600.24 162.79 599.94 161.64 599.94 160.34C599.94 159.04 600.24 157.9 600.84 156.92C601.46 155.94 602.3 155.17 603.36 154.61C604.44 154.03 605.65 153.74 606.99 153.74ZM606.99 156.98C606.35 156.98 605.79 157.11 605.31 157.37C604.83 157.63 604.45 158.01 604.17 158.51C603.89 159.01 603.75 159.62 603.75 160.34C603.75 161.04 603.89 161.65 604.17 162.17C604.45 162.67 604.83 163.06 605.31 163.34C605.79 163.6 606.35 163.73 606.99 163.73C607.61 163.73 608.16 163.6 608.64 163.34C609.12 163.06 609.5 162.67 609.78 162.17C610.06 161.65 610.2 161.04 610.2 160.34C610.2 159.62 610.06 159.01 609.78 158.51C609.5 158.01 609.12 157.63 608.64 157.37C608.16 157.11 607.61 156.98 606.99 156.98ZM604.95 145.34H608.97V150.2H604.95V145.34ZM627.958 145.76H647.338V154.04H632.038V158.24H627.988V151.04H643.288V148.91H627.958V145.76ZM627.988 156.32H647.998V159.47H627.988V156.32ZM625.078 161.51H650.218V164.69H625.078V161.51ZM635.608 162.68H639.568V172.7H635.608V162.68ZM667.998 162.65H671.988V172.7H667.998V162.65ZM657.468 161.51H682.608V164.75H657.468V161.51ZM667.968 149.87H671.478V150.53C671.478 151.45 671.318 152.35 670.998 153.23C670.698 154.09 670.238 154.9 669.618 155.66C668.998 156.4 668.228 157.08 667.308 157.7C666.388 158.3 665.328 158.81 664.128 159.23C662.928 159.63 661.598 159.92 660.138 160.1L658.728 156.95C659.988 156.81 661.108 156.58 662.088 156.26C663.088 155.94 663.958 155.56 664.698 155.12C665.438 154.68 666.048 154.21 666.528 153.71C667.028 153.19 667.388 152.66 667.608 152.12C667.848 151.56 667.968 151.03 667.968 150.53V149.87ZM668.508 149.87H671.988V150.53C671.988 151.01 672.108 151.53 672.348 152.09C672.608 152.63 672.978 153.16 673.458 153.68C673.938 154.18 674.548 154.66 675.288 155.12C676.028 155.56 676.888 155.94 677.868 156.26C678.868 156.58 679.988 156.81 681.228 156.95L679.848 160.1C678.368 159.94 677.028 159.65 675.828 159.23C674.648 158.79 673.598 158.27 672.678 157.67C671.758 157.07 670.988 156.39 670.368 155.63C669.748 154.85 669.278 154.03 668.958 153.17C668.658 152.31 668.508 151.43 668.508 150.53V149.87ZM659.718 148.04H680.298V151.19H659.718V148.04ZM667.998 144.95H671.988V149.12H667.998V144.95ZM697.726 150.05H703.396V153.29H697.726V150.05ZM689.896 146.3H693.166V148.91C693.166 150.75 692.886 152.48 692.326 154.1C691.786 155.7 690.946 157.1 689.806 158.3C688.686 159.5 687.246 160.4 685.486 161L683.356 157.88C684.916 157.36 686.176 156.64 687.136 155.72C688.096 154.78 688.796 153.73 689.236 152.57C689.676 151.39 689.896 150.17 689.896 148.91V146.3ZM690.706 146.3H693.946V149.15C693.946 150.01 694.066 150.86 694.306 151.7C694.546 152.52 694.916 153.3 695.416 154.04C695.916 154.78 696.556 155.44 697.336 156.02C698.116 156.6 699.056 157.07 700.156 157.43L698.056 160.55C696.396 159.97 695.016 159.11 693.916 157.97C692.836 156.83 692.026 155.51 691.486 154.01C690.966 152.49 690.706 150.87 690.706 149.15V146.3ZM687.856 162.65H706.816V172.67H702.796V165.83H687.856V162.65ZM702.796 144.89H706.816V161.42H702.796V144.89ZM710.444 146.63H723.704V158.9H710.444V146.63ZM719.774 149.81H714.374V155.72H719.774V149.81ZM727.514 144.89H731.504V160.43H727.514V144.89ZM730.424 150.89H735.194V154.16H730.424V150.89ZM720.434 163.22H723.824V163.88C723.824 164.94 723.604 165.95 723.164 166.91C722.724 167.87 722.064 168.74 721.184 169.52C720.324 170.28 719.244 170.92 717.944 171.44C716.664 171.98 715.184 172.36 713.504 172.58L712.064 169.55C713.524 169.37 714.774 169.09 715.814 168.71C716.874 168.33 717.744 167.88 718.424 167.36C719.104 166.84 719.604 166.28 719.924 165.68C720.264 165.06 720.434 164.46 720.434 163.88V163.22ZM721.334 163.22H724.694V163.88C724.694 164.46 724.864 165.05 725.204 165.65C725.544 166.23 726.054 166.79 726.734 167.33C727.434 167.85 728.304 168.31 729.344 168.71C730.384 169.11 731.614 169.4 733.034 169.58L731.624 172.61C729.944 172.39 728.464 172.01 727.184 171.47C725.904 170.93 724.824 170.27 723.944 169.49C723.084 168.71 722.434 167.84 721.994 166.88C721.554 165.92 721.334 164.92 721.334 163.88V163.22ZM713.264 161.72H731.864V164.87H713.264V161.72ZM754.811 144.83H758.801V172.7H754.811V144.83ZM743.831 146.78C745.251 146.78 746.511 147.19 747.611 148.01C748.711 148.81 749.571 149.96 750.191 151.46C750.831 152.94 751.151 154.69 751.151 156.71C751.151 158.75 750.831 160.52 750.191 162.02C749.571 163.5 748.711 164.65 747.611 165.47C746.511 166.27 745.251 166.67 743.831 166.67C742.431 166.67 741.181 166.27 740.081 165.47C738.981 164.65 738.111 163.5 737.471 162.02C736.851 160.52 736.541 158.75 736.541 156.71C736.541 154.69 736.851 152.94 737.471 151.46C738.111 149.96 738.981 148.81 740.081 148.01C741.181 147.19 742.431 146.78 743.831 146.78ZM743.831 150.41C743.151 150.41 742.551 150.65 742.031 151.13C741.511 151.61 741.101 152.32 740.801 153.26C740.521 154.18 740.381 155.33 740.381 156.71C740.381 158.07 740.521 159.23 740.801 160.19C741.101 161.13 741.511 161.84 742.031 162.32C742.551 162.8 743.151 163.04 743.831 163.04C744.531 163.04 745.141 162.8 745.661 162.32C746.181 161.84 746.581 161.13 746.861 160.19C747.161 159.23 747.311 158.07 747.311 156.71C747.311 155.33 747.161 154.18 746.861 153.26C746.581 152.32 746.181 151.61 745.661 151.13C745.141 150.65 744.531 150.41 743.831 150.41ZM787.202 144.83H791.192V172.7H787.202V144.83ZM776.222 146.78C777.642 146.78 778.902 147.19 780.002 148.01C781.102 148.81 781.962 149.96 782.582 151.46C783.222 152.94 783.542 154.69 783.542 156.71C783.542 158.75 783.222 160.52 782.582 162.02C781.962 163.5 781.102 164.65 780.002 165.47C778.902 166.27 777.642 166.67 776.222 166.67C774.822 166.67 773.572 166.27 772.472 165.47C771.372 164.65 770.502 163.5 769.862 162.02C769.242 160.52 768.932 158.75 768.932 156.71C768.932 154.69 769.242 152.94 769.862 151.46C770.502 149.96 771.372 148.81 772.472 148.01C773.572 147.19 774.822 146.78 776.222 146.78ZM776.222 150.41C775.542 150.41 774.942 150.65 774.422 151.13C773.902 151.61 773.492 152.32 773.192 153.26C772.912 154.18 772.772 155.33 772.772 156.71C772.772 158.07 772.912 159.23 773.192 160.19C773.492 161.13 773.902 161.84 774.422 162.32C774.942 162.8 775.542 163.04 776.222 163.04C776.922 163.04 777.532 162.8 778.052 162.32C778.572 161.84 778.972 161.13 779.252 160.19C779.552 159.23 779.702 158.07 779.702 156.71C779.702 155.33 779.552 154.18 779.252 153.26C778.972 152.32 778.572 151.61 778.052 151.13C777.532 150.65 776.922 150.41 776.222 150.41ZM814.11 144.89H817.92V165.83H814.11V144.89ZM805.14 152.54H809.58V155.75H805.14V152.54ZM808.56 145.34H812.28V165.02H808.56V145.34ZM795.21 146.99H798.96V151.22H802.5V146.99H806.19V161.06H795.21V146.99ZM798.96 154.28V157.91H802.5V154.28H798.96ZM799.2 168.98H818.61V172.19H799.2V168.98ZM799.2 163.1H803.22V170.87H799.2V163.1ZM823.287 159.17H842.817V162.32H823.287V159.17ZM820.347 166.25H845.517V169.49H820.347V166.25ZM823.287 146.9H842.607V150.08H827.337V160.04H823.287V146.9ZM826.107 153.02H841.977V156.11H826.107V153.02Z" fill="white"/>
<rect x="319.164" y="611" width="224.517" height="224.517" rx="5" fill="white" stroke="#0F2A54" stroke-width="6"/>
<rect x="562.164" y="611" width="224.517" height="224.517" rx="5" fill="white" stroke="#0F2A54" stroke-width="6"/>
<rect x="808.164" y="611" width="224.517" height="224.517" rx="5" fill="white" stroke="#0F2A54" stroke-width="6"/>
<rect x="809.164" y="364" width="224.517" height="224.517" rx="5" fill="white" stroke="#0F2A54" stroke-width="6"/>
<rect x="316.164" y="364" width="224.517" height="224.517" rx="5" fill="white" stroke="#0F2A54" stroke-width="6"/>
<path d="M373.214 415.35H392.864V435.15H420.914V415.35H440.714V485.85H373.214V415.35ZM392.864 450.45V470.1H420.914V450.45H392.864ZM461.564 405.6H481.664V507.6H461.564V405.6ZM388.814 526.05H484.814V541.95H388.814V526.05ZM388.814 497.55H408.764V534.75H388.814V497.55Z" fill="#0F2A54"/>
<rect x="562.164" y="364" width="224.517" height="224.517" rx="5" fill="white" stroke="#0F2A54" stroke-width="6"/>
<path d="M663.164 418.35H683.564C683.564 457.2 666.314 483.9 621.014 499.05L613.064 483.45C650.564 471.3 663.164 452.1 663.164 426.3V418.35ZM620.264 418.35H675.914V434.25H620.264V418.35ZM665.564 445.8V459.3L615.914 463.05L613.214 447.45L665.564 445.8ZM701.414 408.45H721.514V510.45H701.414V408.45ZM715.814 448.35H739.964V464.7H715.814V448.35ZM631.664 529.05H726.164V544.95H631.664V529.05ZM631.664 501.45H651.764V539.85H631.664V501.45Z" fill="#0F2A54"/>
<path d="M922.014 410.4C953.664 410.4 972.264 418.8 972.264 434.1C972.264 449.4 953.664 457.8 922.014 457.8C890.214 457.8 871.764 449.4 871.764 434.1C871.764 418.8 890.214 410.4 922.014 410.4ZM922.014 424.95C901.914 424.95 892.464 427.95 892.464 434.1C892.464 440.55 901.914 443.25 922.014 443.25C942.114 443.25 951.564 440.55 951.564 434.1C951.564 427.95 942.114 424.95 922.014 424.95ZM859.164 464.25H984.714V480H859.164V464.25ZM873.564 487.8H969.564V523.5H893.364V535.8H873.714V509.7H949.914V502.65H873.564V487.8ZM873.714 531.45H973.164V546.45H873.714V531.45Z" fill="#0F2A54"/>
<path d="M946.264 655.15H966.214V794.5H946.264V655.15ZM961.714 707.8H986.164V724.15H961.714V707.8ZM863.014 745.9H874.564C882.464 745.9 889.864 745.8 896.764 745.6C903.664 745.4 910.364 745 916.864 744.4C923.464 743.7 930.164 742.8 936.964 741.7L938.764 757.75C931.764 758.95 924.864 759.9 918.064 760.6C911.364 761.2 904.464 761.65 897.364 761.95C890.264 762.25 882.664 762.4 874.564 762.4H863.014V745.9ZM862.714 667H926.614V720.85H882.664V752.2H863.014V705.1H906.814V683.05H862.714V667Z" fill="#0F2A54"/>
<path d="M645.764 733.75H665.714V790.15H645.764V733.75ZM709.814 655.45H729.914V794.35H709.814V655.45ZM614.114 742.15L611.714 725.95C637.514 725.95 671.564 725.8 701.114 721.75L702.164 736.3C671.864 741.7 639.464 742.15 614.114 742.15ZM682.064 748.9H713.864V763.9H682.064V748.9ZM656.714 661.15C677.114 661.15 691.964 672.85 691.964 689.65C691.964 706.6 677.114 718.15 656.714 718.15C636.014 718.15 621.314 706.6 621.314 689.65C621.314 672.85 636.014 661.15 656.714 661.15ZM656.714 676.15C646.814 676.15 639.914 681.25 639.914 689.65C639.914 698.2 646.814 703 656.714 703C666.314 703 673.214 698.2 673.214 689.65C673.214 681.25 666.314 676.15 656.714 676.15Z" fill="#0F2A54"/>
<path d="M393.464 693.85H408.464V697.45C408.464 726.25 400.064 755.2 377.864 767.95L366.614 752.95C386.414 741.4 393.464 718.75 393.464 697.45V693.85ZM397.364 693.85H412.364V697.45C412.364 718.3 419.564 739.45 439.214 749.95L428.414 764.65C405.914 752.95 397.364 725.8 397.364 697.45V693.85ZM371.264 678.85H434.414V694.9H371.264V678.85ZM393.464 660.1H412.364V691.75H393.464V660.1ZM470.564 655.45H489.464V794.35H470.564V655.45ZM453.914 708.7H477.014V724.9H453.914V708.7ZM440.714 657.55H459.314V788.05H440.714V657.55Z" fill="#0F2A54"/>
<path d="M18.4467 762.596C27.4412 762.596 34.8934 755.613 34.8934 746.806C34.8934 737.998 27.4412 731.016 18.4467 731.016C9.45213 731.016 2 737.998 2 746.806C2 755.613 9.45213 762.596 18.4467 762.596Z" fill="#FFA450" stroke="black" stroke-width="4"/>
<path d="M539.841 807.327C545.445 807.327 549.721 802.456 549.721 796.791C549.721 791.125 545.445 786.254 539.841 786.254C534.237 786.254 529.961 791.125 529.961 796.791C529.961 802.456 534.237 807.327 539.841 807.327Z" fill="#E5606A" stroke="black" stroke-width="4"/>
<path d="M809.077 565.669C815.861 565.669 821.584 560.483 821.584 553.819C821.584 547.155 815.861 541.969 809.077 541.969C802.293 541.969 796.57 547.155 796.57 553.819C796.57 560.483 802.293 565.669 809.077 565.669Z" fill="#F2CF02" stroke="black" stroke-width="4"/>
<circle cx="1096.69" cy="289.109" r="13.82" fill="#F2CF02" stroke="black" stroke-width="4"/>
<path d="M790.693 320.077C796.297 320.077 800.573 315.206 800.573 309.541C800.573 303.875 796.297 299.004 790.693 299.004C785.088 299.004 780.812 303.875 780.812 309.541C780.812 315.206 785.088 320.077 790.693 320.077Z" fill="#E5606A" stroke="black" stroke-width="4"/>
<rect x="291.412" y="580.162" width="16.7392" height="38.8696" transform="rotate(-55.2753 291.412 580.162)" fill="#F08E8B" stroke="black" stroke-width="5"/>
<rect x="1026.22" y="777.053" width="14.6659" height="39.2052" transform="rotate(-55.2753 1026.22 777.053)" fill="#E5606A" stroke="black" stroke-width="5"/>
<rect x="1178.25" y="117.067" width="16.8924" height="31.7541" transform="rotate(21.8015 1178.25 117.067)" fill="#E5606A" stroke="black" stroke-width="5"/>
<rect x="1.04787" y="-3.37668" width="12.8751" height="40.3845" transform="matrix(-0.88491 0.465763 0.465763 0.88491 1371.74 584.905)" fill="#FFD9D9" stroke="black" stroke-width="5"/>
<rect x="129.288" y="850.997" width="16.8924" height="29.8977" transform="rotate(-30.0267 129.288 850.997)" fill="#6EC8FF" stroke="black" stroke-width="5"/>
<rect x="494.199" y="273.738" width="16.8924" height="29.8977" transform="rotate(-0.0917497 494.199 273.738)" fill="#11A532" stroke="black" stroke-width="5"/>
<rect x="1141.84" y="534.673" width="12.8862" height="26.4326" transform="rotate(36.744 1141.84 534.673)" fill="#F2CF02" stroke="black" stroke-width="5"/>
<rect x="38.2814" y="363.095" width="12.8862" height="34.5486" transform="rotate(36.744 38.2814 363.095)" fill="#F2CF02" stroke="black" stroke-width="5"/>
<path d="M136.876 596.021L137.093 601.258L141.027 597.793L157.635 583.163L160.608 580.544L156.965 578.988L139.44 571.504L135.796 569.948L135.96 573.907L136.876 596.021Z" fill="#6EC8FF" stroke="black" stroke-width="5"/>
<path d="M1209.4 428.959L1206.88 433.558L1212.04 432.618L1233.81 428.647L1237.71 427.936L1235.39 424.724L1224.24 409.275L1221.92 406.063L1220.01 409.539L1209.4 428.959Z" fill="#E5606A" stroke="black" stroke-width="5"/>
<path d="M727.983 834.063C744.31 830.625 761.795 835.299 775.859 851.414C782.002 858.451 790.543 859.015 799.434 856.813C809.052 854.396 819.048 851.548 826.43 845.478C840.548 833.848 856.444 833.499 873.148 833.956C889.717 834.412 906.314 833.982 922.883 834.117C926.655 834.144 931.747 832.478 933.364 837.42C934.684 841.53 930.319 843.518 927.571 845.532C911.379 857.484 895.887 870.619 878.671 880.825C832.761 908.007 786.07 902.124 740.214 880.127C722.352 871.559 706.914 859.203 694.035 843.974C692.365 841.987 689.347 840.375 690.371 837.367C691.638 833.768 695.275 834.117 698.346 834.09C706.86 834.036 715.374 834.063 727.983 834.063Z" fill="#0F2A54"/>
<path d="M752.922 876.551C786.474 872.624 815.995 862.875 842.972 845.786C845.163 844.378 847.842 842.916 850.332 842.889C871.275 842.672 892.245 842.753 914.135 842.753C873.169 889.523 805.821 903.903 752.922 876.551Z" fill="#6DC6FD"/>
<path d="M705.312 842.68C732.204 841.622 758.429 836.699 774.558 863.983C748.281 871.578 724.54 868.561 705.312 842.68Z" fill="#F79899"/>
<path d="M1200.81 979.442C1202.1 992.888 1203.39 1005.41 1204.47 1017.99C1204.75 1021.31 1206.28 1025.54 1202.41 1027.47C1198.65 1029.34 1195.94 1025.8 1193.31 1023.74C1162.45 999.308 1147.85 965.81 1140.41 928.244C1131.1 881.115 1136.57 833.801 1138.62 786.566C1139.44 767.73 1141.59 748.921 1138.04 730.164C1137.38 726.73 1136.7 723.269 1135.54 719.993C1126.81 695.425 1117.89 691.488 1094.48 701.818C1076.77 709.637 1061.49 721.525 1045.07 731.485C1041.47 733.677 1037.71 738.248 1033.55 736.187C1028.42 733.625 1030.71 727.522 1030.6 722.925C1030.37 711.513 1031.63 699.968 1030.26 688.714C1028.37 673.26 1036.94 666.18 1048.99 661.108C1071.51 651.624 1094.4 654.741 1117.15 659.998C1133.33 663.75 1148.56 670.46 1164.08 676.298C1185.18 684.25 1195.78 699.995 1200.7 720.759C1205.7 741.841 1206.73 763.265 1205.15 784.822C1202.97 814.621 1202.15 844.394 1204.2 874.22C1206.96 914.111 1224.67 948.005 1246.27 980.393C1247.85 982.77 1251.45 984.62 1249.37 988.239C1247 992.334 1243.08 990.511 1239.93 989.718C1227.25 986.575 1214.67 983.114 1200.81 979.442Z" fill="#0F2A54"/>
<path d="M1196.3 1016C1162.09 985.622 1150.66 948.36 1145.4 908.148C1139.68 864.428 1145.64 820.921 1147.1 777.307C1148.08 748.71 1151.53 719.607 1131.4 694.97C1128.14 690.983 1131.13 689.681 1134.69 689.123C1167.82 683.781 1181.61 680.352 1193.12 722.265C1198.53 741.985 1198.82 762.291 1197.6 782.702C1195.19 822.356 1192.83 862.036 1200.89 901.451C1205.93 926.088 1216.94 947.988 1230.06 969.064C1231.55 971.456 1234.79 974.353 1231.74 977.064C1230.22 978.393 1226.62 978.18 1224.26 977.542C1216.59 975.549 1209.06 973.077 1201.47 970.765C1195.16 968.825 1192.3 970.951 1192.96 977.728C1194.07 989.529 1195.03 1001.36 1196.3 1016Z" fill="#FE9B9B"/>
<path d="M1146 680.238C1106.64 683.848 1073.65 702.416 1040.07 727C1040.07 710.079 1039.86 696.087 1040.17 682.095C1040.3 675.975 1045.69 673.648 1050.06 671.163C1065.93 662.141 1083.2 663.37 1100.18 665.619C1115.83 667.659 1130.95 672.523 1146 680.238Z" fill="#6DC7FD"/>
</svg>
